Coordinates
version=1
nRows=6
nColumns=46
inDegrees=yes

Units are S.I. units (second, meters, Newtons, ...)
Angles are in degrees.

endheader
time	pelvis_tilt	pelvis_list	pelvis_rotation	pelvis_tx	pelvis_ty	pelvis_tz	bb_angle	bb_tx	bb_ty	bb_tz	hip_flexion_r	hip_adduction_r	hip_rotation_r	knee_angle_r	knee_angle_r_beta	ankle_angle_r	subtalar_angle_r	mtp_angle_r	crank_angle_r	hip_flexion_l	hip_adduction_l	hip_rotation_l	knee_angle_l	knee_angle_l_beta	ankle_angle_l	subtalar_angle_l	mtp_angle_l	crank_angle_l	lumbar_extension	lumbar_bending	lumbar_rotation	arm_flex_r	arm_add_r	arm_rot_r	elbow_flex_r	pro_sup_r	wrist_flex_r	wrist_dev_r	arm_flex_l	arm_add_l	arm_rot_l	elbow_flex_l	pro_sup_l	wrist_flex_l	wrist_dev_l
      2.50000000	    -13.14518557	      6.74442856	      5.21742776	      0.17398161	      1.06487802	     -0.31149546	      0.00000000	      0.50000000	      0.00000000	      0.25000000	     41.24884988	    -13.42364419	     -0.64069531	     36.23936261	      0.63249620	    -25.14283794	     -7.74432092	      0.00000000	      0.00000000	     88.09051891	      0.58590666	      1.01150305	    112.92672195	      1.97094311	      8.62619662	     -4.23052351	      0.00000000	      0.00000000	    -63.81666155	     -1.16440394	     -5.47899282	     89.59522926	     -8.13545973	     25.41486346	     40.93092109	     30.02642906	      0.00000000	      0.00000000	     88.80913160	     -4.05591929	     24.22047864	     40.85621513	     35.12258854	      0.00000000	      0.00000000
      2.50500000	    -12.97832464	      7.02330659	      5.15299927	      0.17308967	      1.06482931	     -0.31097045	      0.00000000	      0.50000000	      0.00000000	      0.25000000	     41.36817632	    -13.53510407	     -0.32338247	     37.52153503	      0.65487433	    -24.99925006	     -8.69853288	      0.00000000	      0.00000000	     87.92158662	      0.48956191	      0.57599442	    112.23911377	      1.95894208	      9.68281568	     -4.26467683	      0.00000000	      0.00000000	    -64.11898431	     -1.50727118	     -5.63712578	     89.59414767	     -8.37863776	     25.01749704	     41.31164880	     30.42362107	      0.00000000	      0.00000000	     88.77854771	     -3.83164738	     23.52657174	     41.56547900	     35.39511133	      0.00000000	      0.00000000
      2.51000000	    -12.99306154	      7.07518360	      5.09360503	      0.17225461	      1.06412657	     -0.31044718	      0.00000000	      0.50000000	      0.00000000	      0.25000000	     41.76173958	    -13.42603807	     -0.00180027	     39.03228197	      0.68124183	    -24.55341525	     -9.54131071	      0.00000000	      0.00000000	     87.95603997	      0.36695539	      0.39886439	    111.54820981	      1.94688354	     10.80669459	     -4.15507461	      0.00000000	      0.00000000	    -64.05516459	     -1.76560931	     -5.51074554	     89.59496634	     -8.77556983	     25.40495155	     41.02326902	     30.99949094	      0.00000000	      0.00000000	     88.81287621	     -3.23572459	     22.79643668	     41.08632904	     35.46877406	      0.00000000	      0.00000000
      2.51500000	    -12.96500664	      7.13089798	      5.07372871	      0.17139267	      1.06349973	     -0.31004815	      0.00000000	      0.50000000	      0.00000000	      0.25000000	     42.13573759	    -13.33371075	      0.33301965	     40.59103821	      0.70844726	    -24.23582200	    -10.57163448	      0.00000000	      0.00000000	     87.86784817	      0.34145331	      0.23542098	    110.76300365	      1.93317910	     11.95948347	     -4.11781520	      0.00000000	      0.00000000	    -64.10371563	     -1.95209074	     -5.51944458	     89.59871061	     -8.96313833	     25.37594996	     40.92110462	     31.58040827	      0.00000000	      0.00000000	     88.79136722	     -2.94463438	     22.17732304	     41.35900244	     35.67462491	      0.00000000	      0.00000000
      2.52000000	    -12.86990668	      7.18894740	      5.09516511	      0.17056800	      1.06292338	     -0.30967593	      0.00000000	      0.50000000	      0.00000000	      0.25000000	     42.50612329	    -13.27038395	      0.60946281	     42.26707510	      0.73769963	    -23.96569388	    -11.59865927	      0.00000000	      0.00000000	     87.62070123	      0.37809670	      0.07582551	    109.87135010	      1.91761681	     13.13551930	     -4.08796793	      0.00000000	      0.00000000	    -64.20184473	     -2.09554494	     -5.51145214	     89.60088808	     -9.15140019	     25.30463211	     40.89356731	     31.95291464	      0.00000000	      0.00000000	     88.79617746	     -2.42959267	     21.34005640	     41.42601723	     35.82603688	      0.00000000	      0.00000000
      2.52500000	    -12.76023783	      7.22792527	      5.02574731	      0.16982019	      1.06225939	     -0.30918087	      0.00000000	      0.50000000	      0.00000000	      0.25000000	     42.92111708	    -13.09097271	      1.02609295	     44.01943485	      0.76828407	    -23.71203688	    -12.63318595	      0.00000000	      0.00000000	     87.28455053	      0.33442297	     -0.05764788	    108.90882454	      1.90081757	     14.31072588	     -4.08984633	      0.00000000	      0.00000000	    -64.31126807	     -2.29642656	     -5.47267245	     89.60154730	     -9.36666105	     25.31302632	     40.87928221	     32.61296251	      0.00000000	      0.00000000	     88.82628406	     -2.08663824	     20.60455775	     41.42931217	     36.39466039	      0.00000000	      0.00000000
